<?xml version='1.0' encoding='utf-8'?>
<svg xmins="http://www.w3.org/2000/svg" viewBox="0 0 1000 500"><text x="10" y="10" fill="black" style="font-size: 20px" text-anchor="middle" dominant-baseline="central">0</text><line x1="10" x2="10" y1="25" y2="30" stroke="black" /><text x="210" y="10" fill="black" style="font-size: 20px" text-anchor="middle" dominant-baseline="central">10</text><line x1="210" x2="210" y1="25" y2="30" stroke="black" /><text x="410" y="10" fill="black" style="font-size: 20px" text-anchor="middle" dominant-baseline="central">20</text><line x1="410" x2="410" y1="25" y2="30" stroke="black" /><text x="610" y="10" fill="black" style="font-size: 20px" text-anchor="middle" dominant-baseline="central">30</text><line x1="610" x2="610" y1="25" y2="30" stroke="black" /><text x="810" y="10" fill="black" style="font-size: 20px" text-anchor="middle" dominant-baseline="central">40</text><line x1="810" x2="810" y1="25" y2="30" stroke="black" /><text x="10" y="50" fill="black" style="font-size: 20px" text-anchor="middle" dominant-baseline="central">A</text><text x="30" y="50" fill="black" style="font-size: 20px" text-anchor="middle" dominant-baseline="central">T</text><text x="50" y="50" fill="black" style="font-size: 20px" text-anchor="middle" dominant-baseline="central">C</text><text x="70" y="50" fill="black" style="font-size: 20px" text-anchor="middle" dominant-baseline="central">G</text><text x="90" y="50" fill="black" style="font-size: 20px" text-anchor="middle" dominant-baseline="central">A</text><text x="110" y="50" fill="black" style="font-size: 20px" text-anchor="middle" dominant-baseline="central">T</text><text x="130" y="50" fill="black" style="font-size: 20px" text-anchor="middle" dominant-baseline="central">A</text><text x="150" y="50" fill="black" style="font-size: 20px" text-anchor="middle" dominant-baseline="central">C</text><text x="170" y="50" fill="black" style="font-size: 20px" text-anchor="middle" dominant-baseline="central">G</text><text x="190" y="50" fill="black" style="font-size: 20px" text-anchor="middle" dominant-baseline="central">A</text><text x="210" y="50" fill="black" style="font-size: 20px" text-anchor="middle" dominant-baseline="central">T</text><text x="230" y="50" fill="black" style="font-size: 20px" text-anchor="middle" dominant-baseline="central">G</text><text x="250" y="50" fill="black" style="font-size: 20px" text-anchor="middle" dominant-baseline="central">C</text><text x="270" y="50" fill="black" style="font-size: 20px" text-anchor="middle" dominant-baseline="central">G</text><text x="290" y="50" fill="black" style="font-size: 20px" text-anchor="middle" dominant-baseline="central">T</text><text x="310" y="50" fill="black" style="font-size: 20px" text-anchor="middle" dominant-baseline="central">A</text><text x="330" y="50" fill="black" style="font-size: 20px" text-anchor="middle" dominant-baseline="central">C</text><text x="350" y="50" fill="black" style="font-size: 20px" text-anchor="middle" dominant-baseline="central">G</text><text x="370" y="50" fill="black" style="font-size: 20px" text-anchor="middle" dominant-baseline="central">A</text><text x="390" y="50" fill="black" style="font-size: 20px" text-anchor="middle" dominant-baseline="central">T</text><text x="410" y="50" fill="black" style="font-size: 20px" text-anchor="middle" dominant-baseline="central">C</text><text x="430" y="50" fill="black" style="font-size: 20px" text-anchor="middle" dominant-baseline="central">G</text><text x="450" y="50" fill="black" style="font-size: 20px" text-anchor="middle" dominant-baseline="central">T</text><text x="470" y="50" fill="black" style="font-size: 20px" text-anchor="middle" dominant-baseline="central">A</text><text x="490" y="50" fill="black" style="font-size: 20px" text-anchor="middle" dominant-baseline="central">G</text><text x="510" y="50" fill="black" style="font-size: 20px" text-anchor="middle" dominant-baseline="central">C</text><text x="530" y="50" fill="black" style="font-size: 20px" text-anchor="middle" dominant-baseline="central">T</text><text x="550" y="50" fill="black" style="font-size: 20px" text-anchor="middle" dominant-baseline="central">A</text><text x="570" y="50" fill="black" style="font-size: 20px" text-anchor="middle" dominant-baseline="central">G</text><text x="590" y="50" fill="black" style="font-size: 20px" text-anchor="middle" dominant-baseline="central">C</text><text x="610" y="50" fill="black" style="font-size: 20px" text-anchor="middle" dominant-baseline="central">T</text><text x="630" y="50" fill="black" style="font-size: 20px" text-anchor="middle" dominant-baseline="central">A</text><text x="650" y="50" fill="black" style="font-size: 20px" text-anchor="middle" dominant-baseline="central">G</text><text x="670" y="50" fill="black" style="font-size: 20px" text-anchor="middle" dominant-baseline="central">C</text><text x="690" y="50" fill="black" style="font-size: 20px" text-anchor="middle" dominant-baseline="central">T</text><text x="710" y="50" fill="black" style="font-size: 20px" text-anchor="middle" dominant-baseline="central">A</text><text x="730" y="50" fill="black" style="font-size: 20px" text-anchor="middle" dominant-baseline="central">G</text><text x="750" y="50" fill="black" style="font-size: 20px" text-anchor="middle" dominant-baseline="central">C</text><text x="770" y="50" fill="black" style="font-size: 20px" text-anchor="middle" dominant-baseline="central">T</text><text x="790" y="50" fill="black" style="font-size: 20px" text-anchor="middle" dominant-baseline="central">A</text><text x="810" y="50" fill="black" style="font-size: 20px" text-anchor="middle" dominant-baseline="central">G</text><text x="830" y="50" fill="black" style="font-size: 20px" text-anchor="middle" dominant-baseline="central">C</text><polyline fill="none" stroke="black" points="60.0,60.0 40.0,60.0 40.0,80.0 60.0,80.0" /><line stroke="black" x1="60.0" x2="80.0" y1="60.0" y2="60.0" /><line stroke="black" x1="60.0" x2="80.0" y1="80.0" y2="80.0" /><text x="70" y="70" fill="black" style="font-size: 20px" text-anchor="middle" dominant-baseline="central">R</text><polyline fill="none" stroke="black" points="80.0,60.0 100.0,60.0 100.0,80.0 80.0,80.0" /><polyline fill="none" stroke="black" points="60.0,60.0 40.0,60.0 40.0,80.0 60.0,80.0" /><line stroke="black" x1="60.0" x2="80.0" y1="60.0" y2="60.0" /><line stroke="black" x1="60.0" x2="80.0" y1="80.0" y2="80.0" /><text x="70" y="70" fill="black" style="font-size: 20px" text-anchor="middle" dominant-baseline="central">R</text><polyline fill="none" stroke="black" points="80.0,60.0 100.0,60.0 100.0,80.0 80.0,80.0" /><polyline fill="none" stroke="black" points="120.0,60.0 100.0,60.0 100.0,80.0 120.0,80.0" /><line stroke="black" x1="120.0" x2="140.0" y1="60.0" y2="60.0" /><line stroke="black" x1="120.0" x2="140.0" y1="80.0" y2="80.0" /><text x="130" y="70" fill="black" style="font-size: 20px" text-anchor="middle" dominant-baseline="central">Y</text><polyline fill="none" stroke="black" points="140.0,60.0 160.0,60.0 160.0,80.0 140.0,80.0" /><polyline fill="none" stroke="black" points="120.0,60.0 100.0,60.0 100.0,80.0 120.0,80.0" /><line stroke="black" x1="120.0" x2="140.0" y1="60.0" y2="60.0" /><line stroke="black" x1="120.0" x2="140.0" y1="80.0" y2="80.0" /><text x="130" y="70" fill="black" style="font-size: 20px" text-anchor="middle" dominant-baseline="central">Y</text><polyline fill="none" stroke="black" points="140.0,60.0 160.0,60.0 160.0,80.0 140.0,80.0" /><polyline fill="none" stroke="black" points="180.0,60.0 160.0,60.0 160.0,80.0 180.0,80.0" /><line stroke="black" x1="180.0" x2="200.0" y1="60.0" y2="60.0" /><line stroke="black" x1="180.0" x2="200.0" y1="80.0" y2="80.0" /><text x="190" y="70" fill="black" style="font-size: 20px" text-anchor="middle" dominant-baseline="central">D</text><polyline fill="none" stroke="black" points="200.0,60.0 220.0,60.0 220.0,80.0 200.0,80.0" /><polyline fill="none" stroke="black" points="180.0,60.0 160.0,60.0 160.0,80.0 180.0,80.0" /><line stroke="black" x1="180.0" x2="200.0" y1="60.0" y2="60.0" /><line stroke="black" x1="180.0" x2="200.0" y1="80.0" y2="80.0" /><text x="190" y="70" fill="black" style="font-size: 20px" text-anchor="middle" dominant-baseline="central">D</text><polyline fill="none" stroke="black" points="200.0,60.0 220.0,60.0 220.0,80.0 200.0,80.0" /><polyline fill="none" stroke="black" points="240.0,60.0 220.0,60.0 220.0,80.0 240.0,80.0" /><line stroke="black" x1="240.0" x2="260.0" y1="60.0" y2="60.0" /><line stroke="black" x1="240.0" x2="260.0" y1="80.0" y2="80.0" /><text x="250" y="70" fill="black" style="font-size: 20px" text-anchor="middle" dominant-baseline="central">A</text><polyline fill="none" stroke="black" points="260.0,60.0 280.0,60.0 280.0,80.0 260.0,80.0" /><polyline fill="none" stroke="black" points="240.0,60.0 220.0,60.0 220.0,80.0 240.0,80.0" /><line stroke="black" x1="240.0" x2="260.0" y1="60.0" y2="60.0" /><line stroke="black" x1="240.0" x2="260.0" y1="80.0" y2="80.0" /><text x="250" y="70" fill="black" style="font-size: 20px" text-anchor="middle" dominant-baseline="central">A</text><polyline fill="none" stroke="black" points="260.0,60.0 280.0,60.0 280.0,80.0 260.0,80.0" /><polyline fill="none" stroke="black" points="300.0,60.0 280.0,60.0 280.0,80.0 300.0,80.0" /><line stroke="black" x1="300.0" x2="320.0" y1="60.0" y2="60.0" /><line stroke="black" x1="300.0" x2="320.0" y1="80.0" y2="80.0" /><text x="310" y="70" fill="black" style="font-size: 20px" text-anchor="middle" dominant-baseline="central">Y</text><polyline fill="none" stroke="black" points="320.0,60.0 340.0,60.0 340.0,80.0 320.0,80.0" /><polyline fill="none" stroke="black" points="300.0,60.0 280.0,60.0 280.0,80.0 300.0,80.0" /><line stroke="black" x1="300.0" x2="320.0" y1="60.0" y2="60.0" /><line stroke="black" x1="300.0" x2="320.0" y1="80.0" y2="80.0" /><text x="310" y="70" fill="black" style="font-size: 20px" text-anchor="middle" dominant-baseline="central">Y</text><polyline fill="none" stroke="black" points="320.0,60.0 340.0,60.0 340.0,80.0 320.0,80.0" /><polyline fill="none" stroke="black" points="360.0,60.0 340.0,60.0 340.0,80.0 360.0,80.0" /><line stroke="black" x1="360.0" x2="380.0" y1="60.0" y2="60.0" /><line stroke="black" x1="360.0" x2="380.0" y1="80.0" y2="80.0" /><text x="370" y="70" fill="black" style="font-size: 20px" text-anchor="middle" dominant-baseline="central">D</text><polyline fill="none" stroke="black" points="380.0,60.0 400.0,60.0 400.0,80.0 380.0,80.0" /><polyline fill="none" stroke="black" points="360.0,60.0 340.0,60.0 340.0,80.0 360.0,80.0" /><line stroke="black" x1="360.0" x2="380.0" y1="60.0" y2="60.0" /><line stroke="black" x1="360.0" x2="380.0" y1="80.0" y2="80.0" /><text x="370" y="70" fill="black" style="font-size: 20px" text-anchor="middle" dominant-baseline="central">D</text><polyline fill="none" stroke="black" points="380.0,60.0 400.0,60.0 400.0,80.0 380.0,80.0" /><polyline fill="none" stroke="black" points="420.0,60.0 400.0,60.0 400.0,80.0 420.0,80.0" /><line stroke="black" x1="420.0" x2="440.0" y1="60.0" y2="60.0" /><line stroke="black" x1="420.0" x2="440.0" y1="80.0" y2="80.0" /><text x="430" y="70" fill="black" style="font-size: 20px" text-anchor="middle" dominant-baseline="central">R</text><polyline fill="none" stroke="black" points="440.0,60.0 460.0,60.0 460.0,80.0 440.0,80.0" /><polyline fill="none" stroke="black" points="420.0,60.0 400.0,60.0 400.0,80.0 420.0,80.0" /><line stroke="black" x1="420.0" x2="440.0" y1="60.0" y2="60.0" /><line stroke="black" x1="420.0" x2="440.0" y1="80.0" y2="80.0" /><text x="430" y="70" fill="black" style="font-size: 20px" text-anchor="middle" dominant-baseline="central">R</text><polyline fill="none" stroke="black" points="440.0,60.0 460.0,60.0 460.0,80.0 440.0,80.0" /><polyline fill="none" stroke="black" points="480.0,60.0 460.0,60.0 460.0,80.0 480.0,80.0" /><line stroke="black" x1="480.0" x2="500.0" y1="60.0" y2="60.0" /><line stroke="black" x1="480.0" x2="500.0" y1="80.0" y2="80.0" /><text x="490" y="70" fill="black" style="font-size: 20px" text-anchor="middle" dominant-baseline="central">S</text><polyline fill="none" stroke="black" points="500.0,60.0 520.0,60.0 520.0,80.0 500.0,80.0" /><polyline fill="none" stroke="black" points="480.0,60.0 460.0,60.0 460.0,80.0 480.0,80.0" /><line stroke="black" x1="480.0" x2="500.0" y1="60.0" y2="60.0" /><line stroke="black" x1="480.0" x2="500.0" y1="80.0" y2="80.0" /><text x="490" y="70" fill="black" style="font-size: 20px" text-anchor="middle" dominant-baseline="central">S</text><polyline fill="none" stroke="black" points="500.0,60.0 520.0,60.0 520.0,80.0 500.0,80.0" /><polyline fill="none" stroke="black" points="540.0,60.0 520.0,60.0 520.0,80.0 540.0,80.0" /><line stroke="black" x1="540.0" x2="560.0" y1="60.0" y2="60.0" /><line stroke="black" x1="540.0" x2="560.0" y1="80.0" y2="80.0" /><text x="550" y="70" fill="purple" style="font-size: 20px" text-anchor="middle" dominant-baseline="central">*</text><polyline fill="none" stroke="black" points="560.0,60.0 580.0,60.0 580.0,80.0 560.0,80.0" /><text x="10" y="95.0" fill="black" style="font-size: 20px" text-anchor="middle" dominant-baseline="central">A</text><text x="30" y="95.0" fill="black" style="font-size: 20px" text-anchor="middle" dominant-baseline="central">T</text><text x="50" y="95.0" fill="black" style="font-size: 20px" text-anchor="middle" dominant-baseline="central">C</text><text x="70" y="95.0" fill="black" style="font-size: 20px" text-anchor="middle" dominant-baseline="central">G</text><text x="90" y="95.0" fill="black" style="font-size: 20px" text-anchor="middle" dominant-baseline="central">A</text><text x="110" y="95.0" fill="black" style="font-size: 20px" text-anchor="middle" dominant-baseline="central">T</text><text x="130" y="95.0" fill="black" style="font-size: 20px" text-anchor="middle" dominant-baseline="central">A</text><text x="150" y="95.0" fill="black" style="font-size: 20px" text-anchor="middle" dominant-baseline="central">C</text><text x="170" y="95.0" fill="black" style="font-size: 20px" text-anchor="middle" dominant-baseline="central">G</text><text x="190" y="95.0" fill="black" style="font-size: 20px" text-anchor="middle" dominant-baseline="central">A</text><text x="210" y="95.0" fill="black" style="font-size: 20px" text-anchor="middle" dominant-baseline="central">T</text><text x="230" y="95.0" fill="black" style="font-size: 20px" text-anchor="middle" dominant-baseline="central">G</text><text x="250" y="95.0" fill="black" style="font-size: 20px" text-anchor="middle" dominant-baseline="central">C</text><text x="270" y="95.0" fill="black" style="font-size: 20px" text-anchor="middle" dominant-baseline="central">G</text><text x="290" y="95.0" fill="black" style="font-size: 20px" text-anchor="middle" dominant-baseline="central">T</text><text x="310" y="95.0" fill="black" style="font-size: 20px" text-anchor="middle" dominant-baseline="central">A</text><text x="330" y="95.0" fill="black" style="font-size: 20px" text-anchor="middle" dominant-baseline="central">C</text><text x="350" y="95.0" fill="black" style="font-size: 20px" text-anchor="middle" dominant-baseline="central">G</text><text x="370" y="95.0" fill="black" style="font-size: 20px" text-anchor="middle" dominant-baseline="central">A</text><text x="390" y="95.0" fill="black" style="font-size: 20px" text-anchor="middle" dominant-baseline="central">T</text><text x="410" y="95.0" fill="black" style="font-size: 20px" text-anchor="middle" dominant-baseline="central">C</text><text x="430" y="95.0" fill="black" style="font-size: 20px" text-anchor="middle" dominant-baseline="central">G</text><text x="450" y="95.0" fill="black" style="font-size: 20px" text-anchor="middle" dominant-baseline="central">T</text><text x="470" y="95.0" fill="black" style="font-size: 20px" text-anchor="middle" dominant-baseline="central">A</text><text x="490" y="95.0" fill="black" style="font-size: 20px" text-anchor="middle" dominant-baseline="central">G</text><text x="510" y="95.0" fill="black" style="font-size: 20px" text-anchor="middle" dominant-baseline="central">C</text><text x="530" y="95.0" fill="black" style="font-size: 20px" text-anchor="middle" dominant-baseline="central">T</text><text x="550" y="95.0" fill="black" style="font-size: 20px" text-anchor="middle" dominant-baseline="central">A</text><text x="570" y="95.0" fill="black" style="font-size: 20px" text-anchor="middle" dominant-baseline="central">G</text><text x="590" y="95.0" fill="black" style="font-size: 20px" text-anchor="middle" dominant-baseline="central">C</text><text x="610" y="95.0" fill="black" style="font-size: 20px" text-anchor="middle" dominant-baseline="central">T</text><text x="630" y="95.0" fill="black" style="font-size: 20px" text-anchor="middle" dominant-baseline="central">A</text><text x="650" y="95.0" fill="black" style="font-size: 20px" text-anchor="middle" dominant-baseline="central">G</text><text x="670" y="95.0" fill="black" style="font-size: 20px" text-anchor="middle" dominant-baseline="central">C</text><text x="690" y="95.0" fill="black" style="font-size: 20px" text-anchor="middle" dominant-baseline="central">T</text><text x="710" y="95.0" fill="black" style="font-size: 20px" text-anchor="middle" dominant-baseline="central">A</text><text x="730" y="95.0" fill="black" style="font-size: 20px" text-anchor="middle" dominant-baseline="central">G</text><text x="750" y="95.0" fill="black" style="font-size: 20px" text-anchor="middle" dominant-baseline="central">C</text><text x="770" y="95.0" fill="black" style="font-size: 20px" text-anchor="middle" dominant-baseline="central">T</text><text x="790" y="95.0" fill="black" style="font-size: 20px" text-anchor="middle" dominant-baseline="central">A</text><text x="810" y="95.0" fill="black" style="font-size: 20px" text-anchor="middle" dominant-baseline="central">G</text><text x="830" y="95.0" fill="black" style="font-size: 20px" text-anchor="middle" dominant-baseline="central">C</text><polyline fill="none" stroke="black" points="60.0,105.0 40.0,105.0 40.0,125.0 60.0,125.0" /><line stroke="black" x1="60.0" x2="80.0" y1="105.0" y2="105.0" /><line stroke="black" x1="60.0" x2="80.0" y1="125.0" y2="125.0" /><text x="70" y="115.0" fill="black" style="font-size: 20px" text-anchor="middle" dominant-baseline="central">R</text><polyline fill="none" stroke="black" points="80.0,105.0 100.0,105.0 100.0,125.0 80.0,125.0" /><polyline fill="none" stroke="black" points="60.0,105.0 40.0,105.0 40.0,125.0 60.0,125.0" /><line stroke="black" x1="60.0" x2="80.0" y1="105.0" y2="105.0" /><line stroke="black" x1="60.0" x2="80.0" y1="125.0" y2="125.0" /><text x="70" y="115.0" fill="black" style="font-size: 20px" text-anchor="middle" dominant-baseline="central">R</text><polyline fill="none" stroke="black" points="80.0,105.0 100.0,105.0 100.0,125.0 80.0,125.0" /><polyline fill="none" stroke="black" points="120.0,105.0 100.0,105.0 100.0,125.0 120.0,125.0" /><line stroke="black" x1="120.0" x2="140.0" y1="105.0" y2="105.0" /><line stroke="black" x1="120.0" x2="140.0" y1="125.0" y2="125.0" /><text x="130" y="115.0" fill="black" style="font-size: 20px" text-anchor="middle" dominant-baseline="central">Y</text><polyline fill="none" stroke="black" points="140.0,105.0 160.0,105.0 160.0,125.0 140.0,125.0" /><polyline fill="none" stroke="black" points="120.0,105.0 100.0,105.0 100.0,125.0 120.0,125.0" /><line stroke="black" x1="120.0" x2="140.0" y1="105.0" y2="105.0" /><line stroke="black" x1="120.0" x2="140.0" y1="125.0" y2="125.0" /><text x="130" y="115.0" fill="black" style="font-size: 20px" text-anchor="middle" dominant-baseline="central">Y</text><polyline fill="none" stroke="black" points="140.0,105.0 160.0,105.0 160.0,125.0 140.0,125.0" /><polyline fill="none" stroke="black" points="180.0,105.0 160.0,105.0 160.0,125.0 180.0,125.0" /><line stroke="black" x1="180.0" x2="200.0" y1="105.0" y2="105.0" /><line stroke="black" x1="180.0" x2="200.0" y1="125.0" y2="125.0" /><text x="190" y="115.0" fill="black" style="font-size: 20px" text-anchor="middle" dominant-baseline="central">D</text><polyline fill="none" stroke="black" points="200.0,105.0 220.0,105.0 220.0,125.0 200.0,125.0" /><polyline fill="none" stroke="black" points="180.0,105.0 160.0,105.0 160.0,125.0 180.0,125.0" /><line stroke="black" x1="180.0" x2="200.0" y1="105.0" y2="105.0" /><line stroke="black" x1="180.0" x2="200.0" y1="125.0" y2="125.0" /><text x="190" y="115.0" fill="black" style="font-size: 20px" text-anchor="middle" dominant-baseline="central">D</text><polyline fill="none" stroke="black" points="200.0,105.0 220.0,105.0 220.0,125.0 200.0,125.0" /><polyline fill="none" stroke="black" points="240.0,105.0 220.0,105.0 220.0,125.0 240.0,125.0" /><line stroke="black" x1="240.0" x2="260.0" y1="105.0" y2="105.0" /><line stroke="black" x1="240.0" x2="260.0" y1="125.0" y2="125.0" /><text x="250" y="115.0" fill="black" style="font-size: 20px" text-anchor="middle" dominant-baseline="central">A</text><polyline fill="none" stroke="black" points="260.0,105.0 280.0,105.0 280.0,125.0 260.0,125.0" /><polyline fill="none" stroke="black" points="240.0,105.0 220.0,105.0 220.0,125.0 240.0,125.0" /><line stroke="black" x1="240.0" x2="260.0" y1="105.0" y2="105.0" /><line stroke="black" x1="240.0" x2="260.0" y1="125.0" y2="125.0" /><text x="250" y="115.0" fill="black" style="font-size: 20px" text-anchor="middle" dominant-baseline="central">A</text><polyline fill="none" stroke="black" points="260.0,105.0 280.0,105.0 280.0,125.0 260.0,125.0" /><polyline fill="none" stroke="black" points="300.0,105.0 280.0,105.0 280.0,125.0 300.0,125.0" /><line stroke="black" x1="300.0" x2="320.0" y1="105.0" y2="105.0" /><line stroke="black" x1="300.0" x2="320.0" y1="125.0" y2="125.0" /><text x="310" y="115.0" fill="black" style="font-size: 20px" text-anchor="middle" dominant-baseline="central">Y</text><polyline fill="none" stroke="black" points="320.0,105.0 340.0,105.0 340.0,125.0 320.0,125.0" /><polyline fill="none" stroke="black" points="300.0,105.0 280.0,105.0 280.0,125.0 300.0,125.0" /><line stroke="black" x1="300.0" x2="320.0" y1="105.0" y2="105.0" /><line stroke="black" x1="300.0" x2="320.0" y1="125.0" y2="125.0" /><text x="310" y="115.0" fill="black" style="font-size: 20px" text-anchor="middle" dominant-baseline="central">Y</text><polyline fill="none" stroke="black" points="320.0,105.0 340.0,105.0 340.0,125.0 320.0,125.0" /><polyline fill="none" stroke="black" points="360.0,105.0 340.0,105.0 340.0,125.0 360.0,125.0" /><line stroke="black" x1="360.0" x2="380.0" y1="105.0" y2="105.0" /><line stroke="black" x1="360.0" x2="380.0" y1="125.0" y2="125.0" /><text x="370" y="115.0" fill="black" style="font-size: 20px" text-anchor="middle" dominant-baseline="central">D</text><polyline fill="none" stroke="black" points="380.0,105.0 400.0,105.0 400.0,125.0 380.0,125.0" /><polyline fill="none" stroke="black" points="360.0,105.0 340.0,105.0 340.0,125.0 360.0,125.0" /><line stroke="black" x1="360.0" x2="380.0" y1="105.0" y2="105.0" /><line stroke="black" x1="360.0" x2="380.0" y1="125.0" y2="125.0" /><text x="370" y="115.0" fill="black" style="font-size: 20px" text-anchor="middle" dominant-baseline="central">D</text><polyline fill="none" stroke="black" points="380.0,105.0 400.0,105.0 400.0,125.0 380.0,125.0" /><polyline fill="none" stroke="black" points="420.0,105.0 400.0,105.0 400.0,125.0 420.0,125.0" /><line stroke="black" x1="420.0" x2="440.0" y1="105.0" y2="105.0" /><line stroke="black" x1="420.0" x2="440.0" y1="125.0" y2="125.0" /><text x="430" y="115.0" fill="black" style="font-size: 20px" text-anchor="middle" dominant-baseline="central">R</text><polyline fill="none" stroke="black" points="440.0,105.0 460.0,105.0 460.0,125.0 440.0,125.0" /><polyline fill="none" stroke="black" points="420.0,105.0 400.0,105.0 400.0,125.0 420.0,125.0" /><line stroke="black" x1="420.0" x2="440.0" y1="105.0" y2="105.0" /><line stroke="black" x1="420.0" x2="440.0" y1="125.0" y2="125.0" /><text x="430" y="115.0" fill="black" style="font-size: 20px" text-anchor="middle" dominant-baseline="central">R</text><polyline fill="none" stroke="black" points="440.0,105.0 460.0,105.0 460.0,125.0 440.0,125.0" /><polyline fill="none" stroke="black" points="480.0,105.0 460.0,105.0 460.0,125.0 480.0,125.0" /><line stroke="black" x1="480.0" x2="500.0" y1="105.0" y2="105.0" /><line stroke="black" x1="480.0" x2="500.0" y1="125.0" y2="125.0" /><text x="490" y="115.0" fill="black" style="font-size: 20px" text-anchor="middle" dominant-baseline="central">S</text><polyline fill="none" stroke="black" points="500.0,105.0 520.0,105.0 520.0,125.0 500.0,125.0" /><polyline fill="none" stroke="black" points="480.0,105.0 460.0,105.0 460.0,125.0 480.0,125.0" /><line stroke="black" x1="480.0" x2="500.0" y1="105.0" y2="105.0" /><line stroke="black" x1="480.0" x2="500.0" y1="125.0" y2="125.0" /><text x="490" y="115.0" fill="black" style="font-size: 20px" text-anchor="middle" dominant-baseline="central">S</text><polyline fill="none" stroke="black" points="500.0,105.0 520.0,105.0 520.0,125.0 500.0,125.0" /><polyline fill="none" stroke="black" points="540.0,105.0 520.0,105.0 520.0,125.0 540.0,125.0" /><line stroke="black" x1="540.0" x2="560.0" y1="105.0" y2="105.0" /><line stroke="black" x1="540.0" x2="560.0" y1="125.0" y2="125.0" /><text x="550" y="115.0" fill="purple" style="font-size: 20px" text-anchor="middle" dominant-baseline="central">*</text><polyline fill="none" stroke="black" points="560.0,105.0 580.0,105.0 580.0,125.0 560.0,125.0" /><text x="10" y="140.0" fill="black" style="font-size: 20px" text-anchor="middle" dominant-baseline="central">A</text><text x="30" y="140.0" fill="black" style="font-size: 20px" text-anchor="middle" dominant-baseline="central">T</text><text x="50" y="140.0" fill="black" style="font-size: 20px" text-anchor="middle" dominant-baseline="central">C</text><text x="70" y="140.0" fill="black" style="font-size: 20px" text-anchor="middle" dominant-baseline="central">G</text><text x="90" y="140.0" fill="black" style="font-size: 20px" text-anchor="middle" dominant-baseline="central">A</text><text x="110" y="140.0" fill="black" style="font-size: 20px" text-anchor="middle" dominant-baseline="central">T</text><text x="130" y="140.0" fill="black" style="font-size: 20px" text-anchor="middle" dominant-baseline="central">A</text><text x="150" y="140.0" fill="black" style="font-size: 20px" text-anchor="middle" dominant-baseline="central">C</text><text x="170" y="140.0" fill="black" style="font-size: 20px" text-anchor="middle" dominant-baseline="central">C</text><text x="190" y="140.0" fill="black" style="font-size: 20px" text-anchor="middle" dominant-baseline="central">A</text><text x="210" y="140.0" fill="black" style="font-size: 20px" text-anchor="middle" dominant-baseline="central">T</text><text x="230" y="140.0" fill="black" style="font-size: 20px" text-anchor="middle" dominant-baseline="central">G</text><text x="250" y="140.0" fill="black" style="font-size: 20px" text-anchor="middle" dominant-baseline="central">C</text><text x="270" y="140.0" fill="black" style="font-size: 20px" text-anchor="middle" dominant-baseline="central">G</text><text x="290" y="140.0" fill="black" style="font-size: 20px" text-anchor="middle" dominant-baseline="central">T</text><text x="310" y="140.0" fill="black" style="font-size: 20px" text-anchor="middle" dominant-baseline="central">A</text><text x="330" y="140.0" fill="black" style="font-size: 20px" text-anchor="middle" dominant-baseline="central">C</text><text x="350" y="140.0" fill="black" style="font-size: 20px" text-anchor="middle" dominant-baseline="central">G</text><text x="370" y="140.0" fill="black" style="font-size: 20px" text-anchor="middle" dominant-baseline="central">A</text><text x="390" y="140.0" fill="black" style="font-size: 20px" text-anchor="middle" dominant-baseline="central">T</text><text x="410" y="140.0" fill="black" style="font-size: 20px" text-anchor="middle" dominant-baseline="central">-</text><text x="430" y="140.0" fill="black" style="font-size: 20px" text-anchor="middle" dominant-baseline="central">-</text><text x="450" y="140.0" fill="black" style="font-size: 20px" text-anchor="middle" dominant-baseline="central">T</text><text x="470" y="140.0" fill="black" style="font-size: 20px" text-anchor="middle" dominant-baseline="central">A</text><text x="490" y="140.0" fill="black" style="font-size: 20px" text-anchor="middle" dominant-baseline="central">G</text><text x="510" y="140.0" fill="black" style="font-size: 20px" text-anchor="middle" dominant-baseline="central">C</text><text x="530" y="140.0" fill="black" style="font-size: 20px" text-anchor="middle" dominant-baseline="central">T</text><text x="550" y="140.0" fill="black" style="font-size: 20px" text-anchor="middle" dominant-baseline="central">A</text><text x="570" y="140.0" fill="black" style="font-size: 20px" text-anchor="middle" dominant-baseline="central">G</text><text x="590" y="140.0" fill="black" style="font-size: 20px" text-anchor="middle" dominant-baseline="central">C</text><text x="610" y="140.0" fill="black" style="font-size: 20px" text-anchor="middle" dominant-baseline="central">G</text><text x="630" y="140.0" fill="black" style="font-size: 20px" text-anchor="middle" dominant-baseline="central">T</text><text x="650" y="140.0" fill="black" style="font-size: 20px" text-anchor="middle" dominant-baseline="central">G</text><text x="670" y="140.0" fill="black" style="font-size: 20px" text-anchor="middle" dominant-baseline="central">G</text><text x="690" y="140.0" fill="black" style="font-size: 20px" text-anchor="middle" dominant-baseline="central">C</text><text x="710" y="140.0" fill="black" style="font-size: 20px" text-anchor="middle" dominant-baseline="central">T</text><text x="730" y="140.0" fill="black" style="font-size: 20px" text-anchor="middle" dominant-baseline="central">A</text><text x="750" y="140.0" fill="black" style="font-size: 20px" text-anchor="middle" dominant-baseline="central">G</text><text x="770" y="140.0" fill="black" style="font-size: 20px" text-anchor="middle" dominant-baseline="central">C</text><text x="790" y="140.0" fill="black" style="font-size: 20px" text-anchor="middle" dominant-baseline="central">T</text><text x="810" y="140.0" fill="black" style="font-size: 20px" text-anchor="middle" dominant-baseline="central">A</text><text x="830" y="140.0" fill="black" style="font-size: 20px" text-anchor="middle" dominant-baseline="central">C</text><polyline fill="none" stroke="black" points="60.0,150.0 40.0,150.0 40.0,170.0 60.0,170.0" /><line stroke="black" x1="60.0" x2="80.0" y1="150.0" y2="150.0" /><line stroke="black" x1="60.0" x2="80.0" y1="170.0" y2="170.0" /><text x="70" y="160.0" fill="black" style="font-size: 20px" text-anchor="middle" dominant-baseline="central">R</text><polyline fill="none" stroke="black" points="80.0,150.0 100.0,150.0 100.0,170.0 80.0,170.0" /><polyline fill="none" stroke="black" points="60.0,150.0 40.0,150.0 40.0,170.0 60.0,170.0" /><line stroke="black" x1="60.0" x2="80.0" y1="150.0" y2="150.0" /><line stroke="black" x1="60.0" x2="80.0" y1="170.0" y2="170.0" /><text x="70" y="160.0" fill="black" style="font-size: 20px" text-anchor="middle" dominant-baseline="central">R</text><polyline fill="none" stroke="black" points="80.0,150.0 100.0,150.0 100.0,170.0 80.0,170.0" /><polyline fill="none" stroke="black" points="120.0,150.0 100.0,150.0 100.0,170.0 120.0,170.0" /><line stroke="black" x1="120.0" x2="140.0" y1="150.0" y2="150.0" /><line stroke="black" x1="120.0" x2="140.0" y1="170.0" y2="170.0" /><text x="130" y="160.0" fill="black" style="font-size: 20px" text-anchor="middle" dominant-baseline="central">Y</text><polyline fill="none" stroke="black" points="140.0,150.0 160.0,150.0 160.0,170.0 140.0,170.0" /><polyline fill="none" stroke="black" points="120.0,150.0 100.0,150.0 100.0,170.0 120.0,170.0" /><line stroke="black" x1="120.0" x2="140.0" y1="150.0" y2="150.0" /><line stroke="black" x1="120.0" x2="140.0" y1="170.0" y2="170.0" /><text x="130" y="160.0" fill="black" style="font-size: 20px" text-anchor="middle" dominant-baseline="central">Y</text><polyline fill="none" stroke="black" points="140.0,150.0 160.0,150.0 160.0,170.0 140.0,170.0" /><polyline fill="none" stroke="black" points="180.0,150.0 160.0,150.0 160.0,170.0 180.0,170.0" /><line stroke="black" x1="180.0" x2="200.0" y1="150.0" y2="150.0" /><line stroke="black" x1="180.0" x2="200.0" y1="170.0" y2="170.0" /><text x="190" y="160.0" fill="black" style="font-size: 20px" text-anchor="middle" dominant-baseline="central">H</text><polyline fill="none" stroke="black" points="200.0,150.0 220.0,150.0 220.0,170.0 200.0,170.0" /><polyline fill="none" stroke="black" points="180.0,150.0 160.0,150.0 160.0,170.0 180.0,170.0" /><line stroke="black" x1="180.0" x2="200.0" y1="150.0" y2="150.0" /><line stroke="black" x1="180.0" x2="200.0" y1="170.0" y2="170.0" /><text x="190" y="160.0" fill="black" style="font-size: 20px" text-anchor="middle" dominant-baseline="central">H</text><polyline fill="none" stroke="black" points="200.0,150.0 220.0,150.0 220.0,170.0 200.0,170.0" /><polyline fill="none" stroke="black" points="240.0,150.0 220.0,150.0 220.0,170.0 240.0,170.0" /><line stroke="black" x1="240.0" x2="260.0" y1="150.0" y2="150.0" /><line stroke="black" x1="240.0" x2="260.0" y1="170.0" y2="170.0" /><text x="250" y="160.0" fill="black" style="font-size: 20px" text-anchor="middle" dominant-baseline="central">A</text><polyline fill="none" stroke="black" points="260.0,150.0 280.0,150.0 280.0,170.0 260.0,170.0" /><polyline fill="none" stroke="black" points="240.0,150.0 220.0,150.0 220.0,170.0 240.0,170.0" /><line stroke="black" x1="240.0" x2="260.0" y1="150.0" y2="150.0" /><line stroke="black" x1="240.0" x2="260.0" y1="170.0" y2="170.0" /><text x="250" y="160.0" fill="black" style="font-size: 20px" text-anchor="middle" dominant-baseline="central">A</text><polyline fill="none" stroke="black" points="260.0,150.0 280.0,150.0 280.0,170.0 260.0,170.0" /><polyline fill="none" stroke="black" points="300.0,150.0 280.0,150.0 280.0,170.0 300.0,170.0" /><line stroke="black" x1="300.0" x2="320.0" y1="150.0" y2="150.0" /><line stroke="black" x1="300.0" x2="320.0" y1="170.0" y2="170.0" /><text x="310" y="160.0" fill="black" style="font-size: 20px" text-anchor="middle" dominant-baseline="central">Y</text><polyline fill="none" stroke="black" points="320.0,150.0 340.0,150.0 340.0,170.0 320.0,170.0" /><polyline fill="none" stroke="black" points="300.0,150.0 280.0,150.0 280.0,170.0 300.0,170.0" /><line stroke="black" x1="300.0" x2="320.0" y1="150.0" y2="150.0" /><line stroke="black" x1="300.0" x2="320.0" y1="170.0" y2="170.0" /><text x="310" y="160.0" fill="black" style="font-size: 20px" text-anchor="middle" dominant-baseline="central">Y</text><polyline fill="none" stroke="black" points="320.0,150.0 340.0,150.0 340.0,170.0 320.0,170.0" /><polyline fill="none" stroke="black" points="360.0,150.0 340.0,150.0 340.0,170.0 360.0,170.0" /><line stroke="black" x1="360.0" x2="380.0" y1="150.0" y2="150.0" /><line stroke="black" x1="360.0" x2="380.0" y1="170.0" y2="170.0" /><text x="370" y="160.0" fill="black" style="font-size: 20px" text-anchor="middle" dominant-baseline="central">D</text><polyline fill="none" stroke="black" points="380.0,150.0 400.0,150.0 400.0,170.0 380.0,170.0" /><polyline fill="none" stroke="black" points="360.0,150.0 340.0,150.0 340.0,170.0 360.0,170.0" /><line stroke="black" x1="360.0" x2="380.0" y1="150.0" y2="150.0" /><line stroke="black" x1="360.0" x2="380.0" y1="170.0" y2="170.0" /><text x="370" y="160.0" fill="black" style="font-size: 20px" text-anchor="middle" dominant-baseline="central">D</text><polyline fill="none" stroke="black" points="380.0,150.0 400.0,150.0 400.0,170.0 380.0,170.0" /><polyline fill="none" stroke="black" points="460.0,150.0 440.0,150.0 440.0,170.0 460.0,170.0" /><line stroke="black" x1="460.0" x2="480.0" y1="150.0" y2="150.0" /><line stroke="black" x1="460.0" x2="480.0" y1="170.0" y2="170.0" /><text x="470" y="160.0" fill="purple" style="font-size: 20px" text-anchor="middle" dominant-baseline="central">*</text><polyline fill="none" stroke="black" points="480.0,150.0 500.0,150.0 500.0,170.0 480.0,170.0" /></svg>